<svg width="48" height="48" viewBox="0 0 48 48" fill="none" xmlns="http://www.w3.org/2000/svg">
<path d="M41.4292 8.90177C29.767 13.4945 15.6188 23.3488 4.83034 39.9321C9.07749 30.38 20.4751 11.6715 35.0418 5.93498L41.4292 8.90177Z" fill="#DC1431"/>
<path fill-rule="evenodd" clip-rule="evenodd" d="M42.7177 8.9394L35.0594 5.38232L34.8394 5.46897C27.427 8.38802 20.8662 14.5834 15.6429 21.1996C10.4126 27.8247 6.48082 34.9265 4.34262 39.7355L5.27946 40.1974C16.0087 23.7052 30.0696 13.9203 41.6306 9.36749L42.7177 8.9394ZM8.43949 33.9294C10.5454 30.1475 13.2686 25.884 16.4885 21.8054C21.6146 15.3122 27.9579 9.3412 35.0245 6.48793L40.1536 8.87031C30.0411 13.0773 18.2733 21.1324 8.43949 33.9294Z" fill="#DC1431"/>
<path d="M42.7953 12.2861C35.6927 14.9742 15.8596 22.4802 4.81867 40.1283C9.73322 34.4457 25.6986 24.9823 41.2196 21.1309L42.7953 12.2861Z" fill="#DC1431"/>
<path fill-rule="evenodd" clip-rule="evenodd" d="M43.4748 11.4863L41.6845 21.5363L41.3536 21.6184C33.6475 23.5307 25.8192 26.8398 19.3044 30.3805C12.776 33.9287 7.62296 37.6788 5.22743 40.4487L4.36472 39.8696C15.4977 22.0745 35.4698 14.5159 42.5836 11.8236L43.4748 11.4863ZM7.96243 36.5016C10.7453 34.2771 14.49 31.8362 18.78 29.5046C25.264 25.9806 33.0485 22.6765 40.7556 20.7256L42.1166 13.0862C35.0073 15.7949 18.7172 22.3873 7.96243 36.5016Z" fill="#DC1431"/>
</svg>
