<svg width="194" height="51" viewBox="0 0 194 51" fill="none" xmlns="http://www.w3.org/2000/svg">
<g filter="url(#filter0_d_270_461)">
<path fill-rule="evenodd" clip-rule="evenodd" d="M159.481 9.62483C157.294 5.78274 154.112 3.86169 149.976 3.86169C147.311 3.86169 145.083 4.58209 143.254 6.06289C141.464 7.50368 140.549 9.42472 140.549 11.8661C140.549 14.0673 141.225 15.7482 142.538 16.9888C143.85 18.1895 145.72 19.2301 148.146 20.1105L149.697 20.6708C152.72 21.7915 153.635 22.4718 153.635 24.0327C153.635 25.9137 152.441 26.8742 150.095 26.8742C147.748 26.8742 145.919 25.6336 144.527 23.1122L139.634 25.7536C140.311 27.7947 141.583 29.4356 143.453 30.7563C145.362 32.037 147.589 32.6774 150.095 32.6774C150.695 32.6774 151.281 32.6376 151.852 32.5586C154.084 28.7005 156.681 24.7265 159.596 20.99C158.498 18.7475 156 16.9992 151.566 15.428L149.697 14.7476C147.748 14.0673 146.913 13.3068 146.913 12.0662C146.913 10.5053 148.106 9.54479 150.015 9.54479C151.964 9.54479 153.157 10.3852 154.788 12.4664L159.481 9.62483ZM159.713 27.2617C158.577 28.4455 157.451 29.6788 156.338 30.9624C156.608 30.7985 156.874 30.6231 157.135 30.4362C158.347 29.5847 159.204 28.5215 159.713 27.2617Z" fill="#F2F4FB"/>
</g>
<g filter="url(#filter1_d_270_461)">
<path d="M6.10881 10.2761C8.58845 6.42209 12.5417 4.09831 17.4754 3.59462C20.3633 3.29983 23.7488 3.71666 26.0963 4.65622L27.5139 5.22357V8.49667V11.7698L27.074 11.4593C25.4742 10.3299 23.0627 9.51797 20.9412 9.39448C15.2688 9.06402 11.2917 12.9413 11.5544 18.546C11.8042 23.8807 15.6305 27.2213 21.1152 26.8937C21.9511 26.8438 23.0668 26.6883 23.5947 26.5482C24.6411 26.2705 26.6307 25.379 27.3554 24.8631C27.6062 24.6845 27.8428 24.5936 27.881 24.6613C27.9194 24.7288 27.9149 26.1322 27.8711 27.7797L27.7915 30.7754L26.573 31.2446C22.1985 32.9289 15.7949 32.8039 11.9618 30.9595C6.86467 28.5068 3.99616 23.7831 4 17.8486C4.00176 15.1769 4.79997 12.3102 6.10881 10.2761Z" fill="#F2F4FB"/>
</g>
<g filter="url(#filter2_d_270_461)">
<path d="M121.929 21.9185V4.02859H128.317V21.8778C128.317 25.2931 127.285 27.9766 125.222 29.9689C123.159 31.9205 120.58 32.8963 117.446 32.8963C114.311 32.8963 111.732 31.9205 109.63 29.9689C107.566 27.9766 106.535 25.2931 106.535 21.8778V4.02859H112.923V21.9185C112.923 25.4558 115.026 26.7568 117.446 26.7568C119.866 26.7568 121.929 25.4558 121.929 21.9185Z" fill="#F2F4FB"/>
</g>
<g filter="url(#filter3_d_270_461)">
<path d="M96.9721 32.3617H90.1157L88.2713 27.6665H75.9218L74.0774 32.3617H67.221L78.8488 4.02859H85.3443L96.9721 32.3617ZM82.0965 11.8809L78.0068 22.3237H86.1863L82.0965 11.8809Z" fill="#F2F4FB"/>
</g>
<g filter="url(#filter4_d_270_461)">
<path d="M47.149 4.02859V26.3713H58.7207L56.0779 32.3617H40.6576V4.02859H47.149Z" fill="#F2F4FB"/>
</g>
<g filter="url(#filter5_d_270_461)">
<path d="M187.401 9.43816C175.688 14.3076 161.479 24.7559 150.644 42.3386C154.909 32.2108 166.356 12.3748 180.986 6.29257L187.401 9.43816Z" fill="#DC1431"/>
</g>
<path fill-rule="evenodd" clip-rule="evenodd" d="M188.695 9.47816L181.004 5.7067L180.783 5.79857C173.338 8.89355 166.749 15.4623 161.504 22.4773C156.251 29.5016 152.302 37.0315 150.155 42.1302L151.096 42.62C161.871 25.1339 175.992 14.7593 187.603 9.93204L188.695 9.47816ZM154.269 35.9743C156.384 31.9645 159.119 27.444 162.353 23.1196C167.501 16.235 173.872 9.90417 180.969 6.87894L186.12 9.4049C175.964 13.8654 164.145 22.406 154.269 35.9743Z" fill="#DC1431"/>
<g filter="url(#filter6_d_270_461)">
<path d="M188.773 13.0264C181.64 15.8764 161.721 23.8348 150.633 42.5465C155.569 36.5214 171.603 26.4878 187.191 22.4041L188.773 13.0264Z" fill="#DC1431"/>
</g>
<path fill-rule="evenodd" clip-rule="evenodd" d="M189.455 12.1785L187.657 22.8343L187.325 22.9213C179.586 24.9488 171.724 28.4574 165.181 32.2115C158.624 35.9735 153.449 39.9496 151.043 42.8864L150.177 42.2725C161.358 23.4049 181.416 15.3907 188.56 12.5362L189.455 12.1785ZM153.79 38.7015C156.585 36.3429 160.346 33.7549 164.654 31.2828C171.166 27.5464 178.984 24.0431 186.724 21.9747L188.091 13.8749C180.951 16.7468 164.591 23.7365 153.79 38.7015Z" fill="#DC1431"/>
<defs>
<filter id="filter0_d_270_461" x="135.634" y="3.86169" width="28.079" height="36.8157" filterUnits="userSpaceOnUse" color-interpolation-filters="sRGB">
<feFlood flood-opacity="0" result="BackgroundImageFix"/>
<feColorMatrix in="SourceAlpha" type="matrix" values="0 0 0 0 0 0 0 0 0 0 0 0 0 0 0 0 0 0 127 0" result="hardAlpha"/>
<feOffset dy="4"/>
<feGaussianBlur stdDeviation="2"/>
<feComposite in2="hardAlpha" operator="out"/>
<feColorMatrix type="matrix" values="0 0 0 0 0 0 0 0 0 0 0 0 0 0 0 0 0 0 0.25 0"/>
<feBlend mode="normal" in2="BackgroundImageFix" result="effect1_dropShadow_270_461"/>
<feBlend mode="normal" in="SourceGraphic" in2="effect1_dropShadow_270_461" result="shape"/>
</filter>
<filter id="filter1_d_270_461" x="0" y="3.50128" width="31.9071" height="36.9285" filterUnits="userSpaceOnUse" color-interpolation-filters="sRGB">
<feFlood flood-opacity="0" result="BackgroundImageFix"/>
<feColorMatrix in="SourceAlpha" type="matrix" values="0 0 0 0 0 0 0 0 0 0 0 0 0 0 0 0 0 0 127 0" result="hardAlpha"/>
<feOffset dy="4"/>
<feGaussianBlur stdDeviation="2"/>
<feComposite in2="hardAlpha" operator="out"/>
<feColorMatrix type="matrix" values="0 0 0 0 0 0 0 0 0 0 0 0 0 0 0 0 0 0 0.25 0"/>
<feBlend mode="normal" in2="BackgroundImageFix" result="effect1_dropShadow_270_461"/>
<feBlend mode="normal" in="SourceGraphic" in2="effect1_dropShadow_270_461" result="shape"/>
</filter>
<filter id="filter2_d_270_461" x="102.535" y="4.02859" width="29.782" height="36.8677" filterUnits="userSpaceOnUse" color-interpolation-filters="sRGB">
<feFlood flood-opacity="0" result="BackgroundImageFix"/>
<feColorMatrix in="SourceAlpha" type="matrix" values="0 0 0 0 0 0 0 0 0 0 0 0 0 0 0 0 0 0 127 0" result="hardAlpha"/>
<feOffset dy="4"/>
<feGaussianBlur stdDeviation="2"/>
<feComposite in2="hardAlpha" operator="out"/>
<feColorMatrix type="matrix" values="0 0 0 0 0 0 0 0 0 0 0 0 0 0 0 0 0 0 0.25 0"/>
<feBlend mode="normal" in2="BackgroundImageFix" result="effect1_dropShadow_270_461"/>
<feBlend mode="normal" in="SourceGraphic" in2="effect1_dropShadow_270_461" result="shape"/>
</filter>
<filter id="filter3_d_270_461" x="63.221" y="4.02859" width="37.751" height="36.3331" filterUnits="userSpaceOnUse" color-interpolation-filters="sRGB">
<feFlood flood-opacity="0" result="BackgroundImageFix"/>
<feColorMatrix in="SourceAlpha" type="matrix" values="0 0 0 0 0 0 0 0 0 0 0 0 0 0 0 0 0 0 127 0" result="hardAlpha"/>
<feOffset dy="4"/>
<feGaussianBlur stdDeviation="2"/>
<feComposite in2="hardAlpha" operator="out"/>
<feColorMatrix type="matrix" values="0 0 0 0 0 0 0 0 0 0 0 0 0 0 0 0 0 0 0.25 0"/>
<feBlend mode="normal" in2="BackgroundImageFix" result="effect1_dropShadow_270_461"/>
<feBlend mode="normal" in="SourceGraphic" in2="effect1_dropShadow_270_461" result="shape"/>
</filter>
<filter id="filter4_d_270_461" x="36.6576" y="4.02859" width="26.0632" height="36.3331" filterUnits="userSpaceOnUse" color-interpolation-filters="sRGB">
<feFlood flood-opacity="0" result="BackgroundImageFix"/>
<feColorMatrix in="SourceAlpha" type="matrix" values="0 0 0 0 0 0 0 0 0 0 0 0 0 0 0 0 0 0 127 0" result="hardAlpha"/>
<feOffset dy="4"/>
<feGaussianBlur stdDeviation="2"/>
<feComposite in2="hardAlpha" operator="out"/>
<feColorMatrix type="matrix" values="0 0 0 0 0 0 0 0 0 0 0 0 0 0 0 0 0 0 0.25 0"/>
<feBlend mode="normal" in2="BackgroundImageFix" result="effect1_dropShadow_270_461"/>
<feBlend mode="normal" in="SourceGraphic" in2="effect1_dropShadow_270_461" result="shape"/>
</filter>
<filter id="filter5_d_270_461" x="146.644" y="6.29257" width="44.7565" height="44.046" filterUnits="userSpaceOnUse" color-interpolation-filters="sRGB">
<feFlood flood-opacity="0" result="BackgroundImageFix"/>
<feColorMatrix in="SourceAlpha" type="matrix" values="0 0 0 0 0 0 0 0 0 0 0 0 0 0 0 0 0 0 127 0" result="hardAlpha"/>
<feOffset dy="4"/>
<feGaussianBlur stdDeviation="2"/>
<feComposite in2="hardAlpha" operator="out"/>
<feColorMatrix type="matrix" values="0 0 0 0 0 0 0 0 0 0 0 0 0 0 0 0 0 0 0.25 0"/>
<feBlend mode="normal" in2="BackgroundImageFix" result="effect1_dropShadow_270_461"/>
<feBlend mode="normal" in="SourceGraphic" in2="effect1_dropShadow_270_461" result="shape"/>
</filter>
<filter id="filter6_d_270_461" x="146.633" y="13.0264" width="46.1402" height="37.5201" filterUnits="userSpaceOnUse" color-interpolation-filters="sRGB">
<feFlood flood-opacity="0" result="BackgroundImageFix"/>
<feColorMatrix in="SourceAlpha" type="matrix" values="0 0 0 0 0 0 0 0 0 0 0 0 0 0 0 0 0 0 127 0" result="hardAlpha"/>
<feOffset dy="4"/>
<feGaussianBlur stdDeviation="2"/>
<feComposite in2="hardAlpha" operator="out"/>
<feColorMatrix type="matrix" values="0 0 0 0 0 0 0 0 0 0 0 0 0 0 0 0 0 0 0.25 0"/>
<feBlend mode="normal" in2="BackgroundImageFix" result="effect1_dropShadow_270_461"/>
<feBlend mode="normal" in="SourceGraphic" in2="effect1_dropShadow_270_461" result="shape"/>
</filter>
</defs>
</svg>
