<svg width="32" height="32" viewBox="0 0 32 32" fill="none" xmlns="http://www.w3.org/2000/svg">
<g clip-path="url(#clip0_109_449)">
<g filter="url(#filter0_d_109_449)">
<path fill-rule="evenodd" clip-rule="evenodd" d="M15.9948 1.61363C19.1091 1.61363 21.6425 4.14702 21.6425 7.26132V15.3295C21.6425 18.4438 19.1091 20.9772 15.9948 20.9772C12.8805 20.9772 10.3471 18.4438 10.3471 15.3295V7.26133C10.3471 4.14703 12.8805 1.61363 15.9948 1.61363ZM24.8698 11.833V15.7235C24.8698 20.616 20.8873 24.5985 15.9948 24.5985C11.1023 24.5985 7.11988 20.616 7.11988 15.7235V11.833H5.50625V15.7235C5.50625 21.2353 9.78021 25.768 15.1879 26.1814L15.188 30.3864H11.1539V32H20.8357V30.3864H16.8016L16.8017 26.1814C22.2094 25.768 26.4834 21.2353 26.4834 15.7235V11.833H24.8698ZM15.9948 0C11.9914 0 8.7335 3.25792 8.7335 7.26133V15.3295C8.7335 19.3329 11.9914 22.5908 15.9948 22.5908C19.9982 22.5908 23.2561 19.3329 23.2561 15.3295V7.26133C23.2561 3.25792 19.9982 0 15.9948 0Z" fill="#17203F"/>
</g>
</g>
<defs>
<filter id="filter0_d_109_449" x="1.50623" y="0" width="28.9772" height="40" filterUnits="userSpaceOnUse" color-interpolation-filters="sRGB">
<feFlood flood-opacity="0" result="BackgroundImageFix"/>
<feColorMatrix in="SourceAlpha" type="matrix" values="0 0 0 0 0 0 0 0 0 0 0 0 0 0 0 0 0 0 127 0" result="hardAlpha"/>
<feOffset dy="4"/>
<feGaussianBlur stdDeviation="2"/>
<feComposite in2="hardAlpha" operator="out"/>
<feColorMatrix type="matrix" values="0 0 0 0 0 0 0 0 0 0 0 0 0 0 0 0 0 0 0.25 0"/>
<feBlend mode="normal" in2="BackgroundImageFix" result="effect1_dropShadow_109_449"/>
<feBlend mode="normal" in="SourceGraphic" in2="effect1_dropShadow_109_449" result="shape"/>
</filter>
<clipPath id="clip0_109_449">
<rect width="32" height="32" fill="white" transform="matrix(-1 0 0 1 32 0)"/>
</clipPath>
</defs>
</svg>
